<?xml version="1.0" standalone="no"?><!DOCTYPE svg PUBLIC "-//W3C//DTD SVG 1.1//EN" "http://www.w3.org/Graphics/SVG/1.1/DTD/svg11.dtd"><svg t="1564727986499" class="icon" viewBox="0 0 1024 1024" version="1.1" xmlns="http://www.w3.org/2000/svg" p-id="5418" width="128" height="128" xmlns:xlink="http://www.w3.org/1999/xlink"><defs><style type="text/css"></style></defs><path d="M648.19 887.656c-0.136 75.185-60.612 136.105-136.344 136.105-75.185 0-136.173-60.68-136.31-136.105h272.655zM602.97 88.564C602.97 39.76 562.22 0 511.95 0c-50.204 0-91.056 39.658-91.056 88.564 0 4.983 0.444 9.863 1.229 14.607-125.696 42.627-217.06 151.669-217.06 306.51v170.645s-11.774 148.562-56.141 150.098c-26.416 0-46.688 19.829-46.688 44.265 0 24.641 20.375 44.265 45.528 44.265h728.376c25.255 0 45.494-19.794 45.494-44.265 0-24.607-20.375-44.265-45.494-44.265-45.528 0-56.756-150.098-56.756-150.098V409.682c0-155.013-85.22-264.123-217.605-306.613a88.498 88.498 0 0 0 1.194-14.505z" p-id="5419" fill="#1296db"></path></svg>